<?xml version="1.0" encoding="UTF-8"?>
<svg version="1.1" viewBox="0 0 1032 1172" width="1280" height="1280" xmlns="http://www.w3.org/2000/svg">
<path transform="translate(494,180)" d="m0 0h32l26 3 22 5 21 7 19 9 19 12 14 11 14 12 11 12 13 18 9 15 8 16 8 20 5 18 4 20 2 31v91l-2 1h-35l-17-1-3-1-1-10-1-88-3-23-5-20-9-20-9-15-9-12-9-10-11-10-18-13-19-10-15-5-27-6-7-1h-25l-22 4-20 6-21 10-12 8-11 9-15 15-9 11-7 10-9 16-5 11-5 17-4 26v165l61-1 1-7 1-121 1-36 4-18 8-18 8-11 8-9 13-10 16-8 12-4 11-2h18l15 3 14 5 15 9 13 11 9 11 9 16 4 14 2 15 1 161h120l1 1v214l-2 28-5 26-7 23-8 18-12 20-14 19-12 13-4 5-8 7-15 12-15 10-20 11-20 8-21 5-17 3-12 1h-36l-20-2-21-5-24-8-16-7-16-9-16-11-11-9-10-9-10-10-13-17-12-20-11-23-8-24-5-26-2-22v-98l1-1h54l2 2 1 101 3 19 5 17 6 15 9 17 11 15 12 14 10 9 14 10 14 8 16 7 15 5 22 4 9 1h16l21-3 16-4 17-7 19-10 19-14 12-11 12-15 9-15 8-17 7-21 4-23 1-167-64-1v164l-2 13-4 12-8 16-9 11-9 9-11 7-3 1h-9l-1-4-2-88v-126l-1-15-62 1-1 73-1 157-1 6-6-1-11-6-10-8-9-10-8-13-7-17-4-22-1-48-1-112h-115l-5-1v-221l2-22 6-29 8-23 10-21 10-17 12-16 9-10 11-11 20-15 14-9 19-10 21-8 25-6 18-3zm9 177-10 4-8 7-5 8-3 9-1 9v140l1 9 1 1h62l1-1 1-19v-141l-4-11-5-6-7-5-13-4z"/>
<path transform="translate(494,180)" d="m0 0h32l26 3 22 5 21 7 19 9 19 12 14 11 14 12 11 12 13 18 9 15 8 16 8 20 5 18 4 20 2 31v91l-2 1h-35l-17-1-3-1-1-10-1-88-3-23-5-20-9-20-9-15-9-12-9-10-11-10-18-13-19-10-15-5-27-6-7-1h-25l-22 4-20 6-21 10-12 8-11 9-15 15-9 11-7 10-9 16-5 11-5 17-4 26v165l61-1 1-7 1-121 1-36 3-14 2 1-2 12-1 111-1 54-1 2h-65l-1-2-1-26-1-128 1-3 1-21 4-20 2-7 5-13 8-15 4-6 8-11 6-8 7-6 5-6 8-7 21-13 22-11 24-8 12-1 3-1h25l10 2 16 1 31 10 12 6 9 6 12 9 4 4 7 6v2h2l9 12 11 15 9 15 9 19 6 22 2 19v80l1 14 2 3h16l15 1h15l3-1-1-25-1-59-1-23-2-16-1-1-2-13-3-7-2-9-4-10-2-2-3-9-9-17-6-9-5-9-9-11-4-6-5-5-1-3-4-2v-2l-4-2v-2l-4-2-10-8v-2l-5-2-8-6-4-2v-2l-6-2-10-6-11-5-10-4-22-6-10-2-16-1-6-1h-36l-26 3-24 6-12 4-20 10-11 7-13 8-12 9-15 14-6 6h-2l-2 4-7 9h-2l-2 5-4 6h-2l-1 5-1 2h-2l-1 5-9 19-3 8-6 18-5 24-2 28-1 55v105l1 52 1 4h112l5 2 1 2 1 30 1 98 1 24 1 14 3 15v4h2l3 9 6 12 9 10 9 8 9 5 5 1 2-15v-78l1-134 1-4 3 1-1 73-1 157-1 6-6-1-11-6-10-8-9-10-8-13-7-17-4-22-1-48-1-112h-115l-5-1v-221l2-22 6-29 8-23 10-21 10-17 12-16 9-10 11-11 20-15 14-9 19-10 21-8 25-6 18-3z" fill="#2D2D2D"/>
<path transform="translate(500,299)" d="m0 0h18l15 3 14 5 15 9 13 11 9 11 9 16 4 14 2 15 1 161h120l1 1v214l-2 28-5 26-7 23-8 18-12 20-14 19-12 13-4 5-8 7-15 12-15 10-20 11-20 8-21 5-17 3-12 1h-36l-20-2-21-5-24-8-16-7-16-9-16-11-11-9-10-9-10-10-13-17-12-20-11-23-8-24-5-26-2-22v-98l1-1h54l2 2 1 101 3 19 5 17 6 15 9 17 11 15 12 14 10 9 14 10 14 8 16 7 15 5 22 4 9 1h16l21-3 16-4 17-7 19-10 19-14 12-11 12-15 9-15 8-17 7-21 4-23 1-167-64-1 2-2 18-1h22l1 1 22 1 2 5v151l-1 17-3 17-5 16-4 11-4 9-7 14-8 12-14 15-10 10-15 10-8 5-16 8-11 5-10 3-8 2-12 2-13 1h-24l-12-2-17-3-12-5-9-4-16-8-10-6v-2l-5-2-11-9-1-3-4-2v-2l-3-1-7-8-8-10-10-18-4-8-3-8-6-20-2-15-1-14v-83l1-13-51 1v65l1 31 1 16 5 28 6 21 9 23 7 13 9 14 5 7v2l3 1 7 8 14 14 15 11 16 10 18 10 8 3 12 5 11 3 6 2 12 3 20 3h53l16-3 17-4 21-7 16-9 9-5 3-3 6-3 3-4 7-3 7-6h2l1-3 5-4h2l2-4h2l2-4 8-9 4-7h2l2-5 9-13 7-11 7-14 4-9 4-11 4-18 4-20 1-10 1-87v-141h-114l-7-2-1-68-1-32-1-68-4-16-4-9-2-1-3-7-14-17-5-5-6-4v-2l-7-2v-2l-5-1-10-4-16-4h-15l-17 2-1-2z" fill="#242424"/>
<path transform="translate(619,600)" d="m0 0h22l1 1 22 1 2 5v151l-1 17-3 17-5 16-4 11-4 9-7 14-8 12-14 15-10 10-15 10-8 5-16 8-11 5-10 3-8 2-12 2-13 1h-24l-12-2-17-3-12-5-9-4-16-8-10-6v-2l-5-2-11-9-1-3-4-2v-2l-3-1-7-8-8-10-10-18-4-8-3-8-6-20-2-15-1-14v-82l1-1 1-13h1l1 101 3 19 5 17 6 15 9 17 11 15 12 14 10 9 14 10 14 8 16 7 15 5 22 4 9 1h16l21-3 16-4 17-7 19-10 19-14 12-11 12-15 9-15 8-17 7-21 4-23 1-167-64-1 2-2z" fill="#262626"/>
<path transform="translate(500,299)" d="m0 0h18l15 3 14 5 15 9 13 11 9 11 9 16 4 14 2 15 1 161h120l1 1v214l-1 13-2 2v-228h-114l-7-2-1-68-1-32-1-68-4-16-4-9-2-1-3-7-14-17-5-5-6-4v-2l-7-2v-2l-5-1-10-4-16-4h-15l-17 2-1-2z" fill="#252525"/>
<path transform="translate(418,603)" d="m0 0 2 2v29h2l1 98 1 24 1 14 3 15v4h2l3 9 6 12 9 10 9 8 9 5 5 1 2-15v-78l1-134 1-4 3 1-1 73-1 157-1 6-6-1-11-6-10-8-9-10-8-13-7-17-4-22-1-48z" fill="#4B4B4B"/>
<path transform="translate(435,252)" d="m0 0m-3 1h3v2l-14 9-11 9-15 15-9 11-7 10-9 16-5 11-5 17-4 26v165l61-1 1-7 1-121 1-36 3-14 2 1-2 12-1 111-1 54-1 2h-65l-1-2-1-26-1-128 1-3 1-21 4-20 2-7 5-13 8-15 4-6 8-11 6-8 7-6 5-6 8-7z" fill="#252525"/>
<path transform="translate(540,603)" d="m0 0 3 1 1 115 2 110 1 3h7l7-4 4-4h2v-2l7-6 5-7 2-4h2l1-4 3-4 5-12h2l1-23 1-87v-71l3-1v164l-2 13-4 12-8 16-9 11-9 9-11 7-3 1h-9l-1-4-2-88v-126z" fill="#2B2B2B"/>
<path transform="translate(303,351)" d="m0 0h1l-2 33-1 55v105l1 52 1 4h112l5 2 1 2v30h-1l-1-31h-116l-5-1v-221l2-22 2-7z" fill="#202020"/>
<path transform="translate(500,355)" d="m0 0h17l4 2h3l7 3 5 4 4 5 4 10 2 7-1 32-1 9-1 117-3-1 1-19v-141l-4-11-4-5-7-5-13-4h-10l-10 4-8 7-6 12-2 13v140l1 10h-3l-1-22-1-90v-42l2-15 2-5 9-9z" fill="#3F3F3F"/>
<path transform="translate(299,667)" d="m0 0h54l1 1v14h-1v-13l-51 1v65l1 31 1 16 5 28 6 21 9 23 5 9v3l-3-1-13-27-8-24-5-26-2-22v-98z" fill="#1F1F1F"/>
<path transform="translate(600,544)" d="m0 0h120l1 1v214l-1 13-2 2v-228h-114z" fill="#7B7B7B"/>
<path transform="translate(493,232)" d="m0 0h25l10 2 16 1 31 10 12 6 9 6 12 9 4 4 7 6v2h2l9 12 7 9-1 2-5-5-9-11-9-9-17-13-14-9-17-8-22-6-22-4h-25l-22 4-20 6-17 8-2-1 4-4 9-4 8-4 22-7 12-1z" fill="#252525"/>
<path transform="translate(635,300)" d="m0 0 4 2 11 18 9 19 6 22 2 19v80l1 14 2 6-6-1-1-10-1-88-3-23-5-20-9-20-9-15z" fill="#424242"/>
<path transform="translate(423,365)" d="m0 0 2 1-2 12-1 111-1 54-1 2h-65l-1-2-1-26v-20l1-68h1l1 115 61-1 1-7 1-121 1-36z" fill="#696969"/>
<path transform="translate(619,600)" d="m0 0h22l1 1 22 1 2 5v151l-1 8-2 1v-163l-64-1 2-2z" fill="#676767"/>
<path transform="translate(429,194)" d="m0 0h3v2l-22 11-11 7-13 8-12 9-15 14-6 6h-2l-2 4-7 9h-2l-2 5-4 6h-2l-1 5-1 2h-2l-1 5-9 19-3 8-6 18-4 19-3 1 3-18 9-27 10-21 10-17 12-16 9-10 11-11 20-15 14-9 19-10z" fill="#2D2D2D"/>
<path transform="translate(475,603)" d="m0 0 3 1-1 73-1 142-2 3-1-3v-78l1-134z" fill="#373737"/>
<path transform="translate(598,603)" d="m0 0h1v164l-2 13-2 4h-1l1-22 1-87v-71z" fill="#757575"/>
<path transform="translate(500,355)" d="m0 0h17l4 2h3l7 3 5 4 4 5 4 10 2 7-1 32-1 9-1 117-3-1 1-19v-141l-4-11-4-5-7-5-13-4h-10l-7 2 2-4z" fill="#292929"/>
<path transform="translate(493,232)" d="m0 0h25l10 2v3l-7-1h-25l-22 4-20 6-17 8-2-1 4-4 9-4 8-4 22-7 12-1z" fill="#1C1C1C"/>
<path transform="translate(540,603)" d="m0 0 3 1v115l-1 25h-1v-126z" fill="#949494"/>
<path transform="translate(542,719)" d="m0 0h2l1 49v61l-2-1-1-38z" fill="#202020"/>
<path transform="translate(482,303)" d="m0 0 2 1-3 3-16 8-10 7-6 5h-2l-2 4-7 7-6 10-6 15h-2l3-9 7-14 10-13 9-8 13-9z" fill="#484848"/>
<path transform="translate(719,453)" d="m0 0h1v26l-1 2h-35l-14-1 1-3h15l15 1h15l3-1z" fill="#222"/>
<path transform="translate(354,386)" d="m0 0h1v43l-1 68h-1l-1-108z" fill="#1A1A1A"/>
<path transform="translate(619,600)" d="m0 0h22l1 1 22 1v2l-65-1 2-2z" fill="#515151"/>
<path transform="translate(320,297)" d="m0 0 1 2-4 8-9 29-3 15-3 1 3-18 9-27 5-9z" fill="#2B2B2B"/>
<path transform="translate(598,603)" d="m0 0h1l-1 72h-1l-1-48v-23z" fill="#1A1A1A"/>
<path transform="translate(360,344)" d="m0 0 1 4-4 22-2 16h-1v-21l4-19z" fill="#3B3B3B"/>
<path transform="translate(339,264)" d="m0 0v3l-5 8h-2l-1 5-1 2h-2l-1 5-5 10-3 1 2-6 11-20 4-6z" fill="#404040"/>
<path transform="translate(500,299)" d="m0 0h18v2l-23 2-9 1-1-2z" fill="#5B5B5B"/>
<path transform="translate(664,766)" d="m0 0h1v9l-3 17-3 1 1-9 3-17z" fill="#3F3F3F"/>
<path transform="translate(455,186)" d="m0 0 3 1-1 2-15 4-6 2h-4v-2l15-5z" fill="#343434"/>
<path transform="translate(414,600)" d="m0 0 6 2 1 2v30h-1l-1-31h-5z" fill="#1A1A1A"/>
<path transform="translate(660,792)" d="m0 0 1 4-4 12-3 1 3-12z" fill="#303030"/>
<path transform="translate(360,344)" d="m0 0 1 4-2 10-2-2 1-10z" fill="#3E3E3E"/>
<path transform="translate(455,186)" d="m0 0 3 1-1 2-8 2-4-1 2-2z" fill="#373737"/>
<path transform="translate(325,287)" d="m0 0 1 2-4 8-3 1 2-6 2-4z" fill="#454545"/>
<path transform="translate(331,276)" d="m0 0 1 2-2 4h-2l-1 5-3 1 2-5 3-6z" fill="#3D3D3D"/>
</svg>
